<svg xmlns="http://www.w3.org/2000/svg" width="1280" height="860" viewBox="0 0 1280 860">
  <defs>
    <style>
      .bg { fill: #f6f3ec; }
      .panel { fill: #ffffff; stroke: #1f3b4d; stroke-width: 2; }
      .chip { fill: #eef6f1; stroke: #1f3b4d; stroke-width: 2; }
      .title { font: 700 30px 'IBM Plex Sans', Arial, sans-serif; fill: #102a43; }
      .h2 { font: 700 22px 'IBM Plex Sans', Arial, sans-serif; fill: #102a43; }
      .txt { font: 500 16px 'IBM Plex Sans', Arial, sans-serif; fill: #1a1a1a; }
      .small { font: 500 14px 'IBM Plex Sans', Arial, sans-serif; fill: #2d3748; }
      .wire-vcc { stroke: #d62839; stroke-width: 4; fill: none; }
      .wire-gnd { stroke: #1d3557; stroke-width: 4; fill: none; }
      .wire-sig { stroke: #2a9d8f; stroke-width: 4; fill: none; }
      .wire-led { stroke: #f4a261; stroke-width: 4; fill: none; }
      .node { fill: #fff; stroke: #222; stroke-width: 2; }
      .res { fill: #fff; stroke: #3a3a3a; stroke-width: 2; }
      .cap { stroke: #3a3a3a; stroke-width: 3; }
      .opt { stroke-dasharray: 7 6; }
      .note { fill: #fff9dd; stroke: #b08a00; stroke-width: 1.5; }
    </style>
  </defs>

  <rect class="bg" x="0" y="0" width="1280" height="860"/>
  <text class="title" x="36" y="46">RPR220 Bare Sensor Schematic (ESP32 LOLIN32 Lite)</text>

  <rect class="panel" x="36" y="90" width="470" height="700" rx="14"/>
  <text class="h2" x="58" y="130">ESP32 LOLIN32 Lite (Dev Board)</text>

  <rect class="chip" x="92" y="170" width="360" height="580" rx="10"/>
  <text class="txt" x="116" y="214">GPIO25 (Virtual VCC, drive HIGH)</text>
  <circle class="node" cx="420" cy="208" r="6"/>

  <text class="txt" x="116" y="294">GPIO26 (Virtual GND, drive LOW)</text>
  <circle class="node" cx="420" cy="288" r="6"/>

  <text class="txt" x="116" y="374">GPIO32 (Pulse Input)</text>
  <circle class="node" cx="420" cy="368" r="6"/>

  <text class="txt" x="116" y="454">GPIO33 (IR LED Control)</text>
  <circle class="node" cx="420" cy="448" r="6"/>

  <text class="small" x="116" y="510">Firmware: GPIO25=HIGH, GPIO26=LOW, GPIO33=HIGH(default)</text>

  <rect class="panel" x="560" y="90" width="684" height="700" rx="14"/>
  <text class="h2" x="582" y="130">RPR220 Bare Sensor + External Components</text>

  <rect class="chip" x="808" y="240" width="380" height="280" rx="10"/>
  <text class="txt" x="832" y="278">RPR220</text>

  <text class="txt" x="838" y="322">IR LED Anode</text>
  <circle class="node" cx="1158" cy="316" r="6"/>

  <text class="txt" x="838" y="372">IR LED Cathode</text>
  <circle class="node" cx="1158" cy="366" r="6"/>

  <text class="txt" x="838" y="432">Phototransistor Collector</text>
  <circle class="node" cx="1158" cy="426" r="6"/>

  <text class="txt" x="838" y="482">Phototransistor Emitter</text>
  <circle class="node" cx="1158" cy="476" r="6"/>

  <rect class="res" x="650" y="430" width="120" height="36" rx="4"/>
  <text class="txt" x="666" y="453">R1 220Ω</text>

  <rect class="res" x="690" y="180" width="120" height="36" rx="4"/>
  <text class="txt" x="706" y="203">R2 10kΩ</text>

  <line class="cap opt" x1="760" y1="620" x2="760" y2="650"/>
  <line class="cap opt" x1="780" y1="620" x2="780" y2="650"/>
  <text class="small" x="796" y="640">C1 100nF (optional)</text>

  <path class="wire-led" d="M420 448 L650 448"/>
  <path class="wire-led" d="M770 448 C880 448, 980 316, 1158 316"/>

  <path class="wire-gnd" d="M1158 366 C1020 366, 900 288, 420 288"/>

  <path class="wire-vcc" d="M420 208 L690 208"/>
  <path class="wire-vcc" d="M810 208 C930 208, 1000 426, 1158 426"/>

  <path class="wire-sig" d="M1158 426 C980 426, 900 368, 420 368"/>

  <path class="wire-gnd" d="M1158 476 C980 476, 900 288, 420 288"/>

  <path class="wire-sig opt" d="M920 426 L760 426 L760 620"/>
  <path class="wire-gnd opt" d="M780 650 L780 700 L420 700 L420 288"/>

  <rect class="note" x="582" y="700" width="638" height="70" rx="8"/>
  <text class="small" x="602" y="728">GPIO32 is pulled up through R2 to GPIO25 (virtual VCC), not directly shorted.</text>
  <text class="small" x="602" y="752">This matches your GPIO-powered wiring approach for low-current sensor operation.</text>
</svg>
